<svg width="27" height="24" viewBox="0 0 27 24" fill="none" xmlns="http://www.w3.org/2000/svg">
<path d="M27 11C27 17.0751 22.0751 22 16 22C9.92487 22 5 17.0751 5 11C5 4.92487 9.92487 0 16 0C22.0751 0 27 4.92487 27 11Z" fill="#E5E3FF"/>
<path d="M1.50003 21.9999H20.5V23.9999H1.50003V21.9999ZM21.07 12.6399C20.86 11.8399 20.03 11.3599 19.23 11.5799L13.92 12.9999L7.00003 6.56995L5.09003 7.07995L9.23003 14.2499L4.26003 15.5799L2.29003 14.0399L0.840027 14.4299L2.66003 17.5899L3.43003 18.9199L5.03003 18.4999L10.34 17.0699L14.69 15.9099L20 14.4999C20.81 14.2599 21.28 13.4399 21.07 12.6399Z" fill="#6357FF"/>
</svg>
