<svg width="22" height="25" viewBox="0 0 22 25" fill="none" xmlns="http://www.w3.org/2000/svg">
<path d="M22 11C22 17.0751 17.0751 22 11 22C4.92487 22 0 17.0751 0 11C0 4.92487 4.92487 0 11 0C17.0751 0 22 4.92487 22 11Z" fill="#E5E3FF"/>
<path d="M1 22H9V25H1V22ZM10.94 3.99999C10.4 3.90999 9.87 4.24999 9.76 4.79999L8.75 10.57C8.53 10.54 8.29 10.5 8 10.47L7.57 10.5L6.41 4.79999C6.31 4.25999 5.78 3.90999 5.24 3.99999C4.7 4.12999 4.35 4.65999 4.45 5.19999L5.65 11.11L1.85 12.8C1.35 13 1 13.53 1 14.14V18.5C1 19.3 1.73 20 2.5 20H9C9.39 20 9.74 19.84 10 19.57L10.5 19.16C10.5 19.16 11 18.78 11 18.36V16C11 16 11 14.86 10.13 14.3L11.71 5.19999C11.83 4.65999 11.5 4.12999 10.94 3.99999Z" fill="#6357FF"/>
</svg>
