<svg width="26" height="24" viewBox="0 0 26 24" fill="none" xmlns="http://www.w3.org/2000/svg">
<path d="M26 11C26 17.0751 21.0751 22 15 22C8.92487 22 4 17.0751 4 11C4 4.92487 8.92487 0 15 0C21.0751 0 26 4.92487 26 11Z" fill="#E5E3FF"/>
<path d="M10 19C9.20435 19 8.44129 18.6839 7.87868 18.1213C7.31607 17.5587 7 16.7956 7 16C7 14.88 7.61 13.9 8.5 13.39L18.21 7.77L12.68 17.35C12.18 18.33 11.17 19 10 19ZM10 6C11.81 6 13.5 6.5 14.97 7.32L12.87 8.53C12 8.19 11 8 10 8C7.87827 8 5.84344 8.84285 4.34315 10.3431C2.84285 11.8434 2 13.8783 2 16C2 18.21 2.89 20.21 4.34 21.65H4.35C4.74 22.04 4.74 22.67 4.35 23.06C3.96 23.45 3.32 23.45 2.93 23.07C1.12 21.26 0 18.76 0 16C0 13.3478 1.05357 10.8043 2.92893 8.92893C4.8043 7.05357 7.34784 6 10 6ZM20 16C20 18.76 18.88 21.26 17.07 23.07C16.68 23.45 16.05 23.45 15.66 23.06C15.27 22.67 15.27 22.04 15.66 21.65C17.11 20.2 18 18.21 18 16C18 15 17.81 14 17.46 13.1L18.67 11C19.5 12.5 20 14.18 20 16Z" fill="#6357FF"/>
</svg>
